# xmcd
#
# Track frame offsets:
#	150
#	14377
#	30211
#	43874
#	57040
#	70787
#	85761
#	98832
#	118103
#	130172
#	139036
#	150571
#
# Disc length: 2171 seconds
#
# Revision: 1
# Processed by: cddbd v1.5.2PL0 Copyright (c) Steve Scherf et al.
# Submitted via: audiograbber 1.83.01
#
DISCID=9108790c
DTITLE=Honoré Godbout - Sometimes she forgets
DYEAR=2006
DGENRE=
TTITLE0=Good hearted women 3.09
TTITLE1=Dime lights thick smoke 3.31
TTITLE2=Brother jukebox 3.02
TTITLE3=Look what followed me home 2.55
TTITLE4=Ashes of love 3.03
TTITLE5=I`m a lonesome fugitive 3.19
TTITLE6=Just call me lonesome 2.54
TTITLE7=Sometimes she forgets 4.16
TTITLE8=I was there 2.40
TTITLE9=Hello trouble 1.58
TTITLE10=Working man blues 2.33
TTITLE11=Rueben James 2.44
EXTD=Enregistré au Studio CDI
EXTT0=
EXTT1=
EXTT2=
EXTT3=
EXTT4=
EXTT5=
EXTT6=
EXTT7=
EXTT8=
EXTT9=
EXTT10=
EXTT11=
PLAYORDER=
